<?xml version="1.0" encoding="iso-8859-1"?>
<!-- Generator: Adobe Illustrator 19.0.0, SVG Export Plug-In . SVG Version: 6.00 Build 0)  -->
<svg xmlns="http://www.w3.org/2000/svg" xmlns:xlink="http://www.w3.org/1999/xlink" version="1.1" id="Capa_1" x="0px" y="0px" viewBox="0 0 512.117 512.117" style="enable-background:new 0 0 512.117 512.117;" xml:space="preserve" width="512px" height="512px">
<g transform="translate(-1)">
	<g>
		<g>
			<path d="M298.629,365.933c3.787-5.937,4.957-13.174,3.234-20.002c6.6-2.138,12.012-6.926,14.941-13.215     c8.273-18.092,14.667-36.986,19.083-56.383c5.685-24.574,8.087-49.794,7.142-75c-0.339-7.379-3.811-14.262-9.543-18.921     c4.54-5.895,6.306-13.467,4.843-20.763c-3.029-15.227-7.677-30.087-13.867-44.325c-9.138-21.983-23.26-41.541-41.25-57.133     c-5.964-4.986-13.883-6.967-21.492-5.375c-0.221,0.046-0.415,0.156-0.634,0.208c-0.207-0.612-0.303-1.25-0.558-1.85     c-2.837-6.761-8.497-11.936-15.484-14.158h-0.009c-2.767-0.867-5.567-1.625-8.492-2.3c-7.716-1.696-15.591-2.563-23.491-2.583     c-35.175,0-71.492,17.175-102.283,48.375c-4.038,4.122-6.596,9.465-7.275,15.195c-4.592,0.814-8.635,3.511-11.15,7.438     c-17.451,30.031-32.201,61.552-44.075,94.192c-2.564,6.792-2.11,14.356,1.248,20.792c-0.146,0.097-0.313,0.149-0.456,0.249     c-5.959,4.134-9.893,10.593-10.833,17.783c-4.419,32.712-2.641,65.963,5.242,98.017c2.142,8.158,8.155,14.744,16.085,17.619     c-4.327,7.545-4.531,16.769-0.543,24.498c0.042,0.092,0.092,0.183,0.142,0.275c7.194,14.528,16.619,27.839,27.933,39.45     c2.233,2.258,4.55,4.45,6.942,6.525c2.358,2.059,4.797,4.031,7.316,5.917c2.483,1.842,5.025,3.592,7.633,5.225     c2.6,1.642,5.267,3.167,7.975,4.567c2.7,1.408,5.461,2.7,8.283,3.875c2.8,1.167,5.658,2.225,8.542,3.142     c2.917,0.933,5.883,1.775,8.85,2.417c7.76,1.704,15.68,2.57,23.625,2.583c5.499-0.031,10.74-2.339,14.475-6.375     c0.385-0.417,0.664-0.905,1.011-1.349c6.033,3.449,13.238,4.205,19.856,2.082c36.467-11.508,70.925-40.166,97.033-80.683V365.933     z M259.197,76.129c1.184-2.373,3.393-4.07,5.99-4.604c2.497-0.535,5.1,0.111,7.058,1.75     c15.972,13.908,28.495,31.335,36.583,50.908c5.705,13.118,9.985,26.81,12.767,40.842c0.812,4.029-1.328,8.072-5.117,9.667     l-8.854,3.688l-0.046,0.012l-75.717,31.536L182.937,230.3l-0.177-0.188l-0.045-0.048c-0.115-0.123-0.228-0.248-0.345-0.365     l29.602-59.174L259.197,76.129z M122.921,94.492L122.921,94.492C150.47,66.575,182.488,51.2,213.054,51.2     c6.647,0.021,13.274,0.75,19.767,2.175c2.392,0.55,4.755,1.192,7.092,1.925c2.226,0.71,4.024,2.37,4.908,4.533     c1.004,2.359,0.921,5.04-0.225,7.333l-0.641,1.28l-0.034,0.053L167.11,222.05c-0.511-0.063-1.039-0.061-1.558-0.092l-0.341-0.02     c-0.409-0.018-0.809-0.072-1.223-0.072h-0.192l-42.992-118.25C119.703,100.421,120.525,96.877,122.921,94.492z M64.237,205.375     c11.424-31.471,25.604-61.873,42.375-90.85l41.133,113.158c-0.912,0.762-1.77,1.586-2.567,2.467     c-0.226,0.244-0.433,0.494-0.649,0.746c-0.746,0.857-1.434,1.763-2.059,2.712l-26.916-6.323l-45.28-10.64     c-2.407-0.546-4.455-2.119-5.605-4.303C63.516,210.194,63.358,207.649,64.237,205.375L64.237,205.375z M66.463,338.342     c-3.188-0.754-5.684-3.234-6.458-6.417c-7.354-29.952-8.997-61.022-4.842-91.583c0.576-4.265,4.204-7.456,8.508-7.484     c0.668,0,1.334,0.078,1.983,0.233l0.71,0.167l0.023,0.009l72.151,16.952c0.051,0.476,0.216,0.923,0.294,1.392     c0.136,0.829,0.299,1.634,0.514,2.439c0.479,1.704,1.11,3.361,1.887,4.951c0.145,0.283,0.224,0.598,0.38,0.875l-21.657,24.563     l-45.227,51.281C72.686,338.079,69.492,339.092,66.463,338.342z M168.204,434.292c-0.529,0.592-1.29,0.923-2.084,0.908     c-6.687-0.023-13.353-0.761-19.883-2.2c-2.451-0.542-4.874-1.207-7.258-1.992c-2.433-0.775-4.822-1.653-7.167-2.633     c-2.375-0.992-4.708-2.083-7-3.275c-2.3-1.183-4.547-2.469-6.741-3.858c-2.242-1.408-4.425-2.908-6.525-4.475     c-2.158-1.608-4.258-3.305-6.3-5.092c-2.075-1.808-4.092-3.7-6.025-5.658c-10.126-10.414-18.549-22.357-24.959-35.392     l-0.15-0.292c-1.546-3.097-1.083-6.818,1.175-9.442l12.267-13.908l0.009-0.009l11.932-13.531l54.901-62.252     c0.099,0.041,0.205,0.064,0.305,0.102c0.188,0.075,0.385,0.125,0.576,0.195c0.665,0.243,1.328,0.493,2.011,0.678l0.216,2.91     l11.601,156.656C169.171,432.674,168.846,433.601,168.204,434.292z M170.796,252.558c-1.612,2.142-4.128,3.413-6.808,3.442     c-4.671-0.1-8.433-3.862-8.533-8.533c0-0.539,0.067-1.076,0.202-1.598c0.033-0.149,0.046-0.265,0.09-0.435     c0.67-2.82,2.74-5.098,5.483-6.033c0.956-0.327,1.965-0.468,2.973-0.417c1.214-0.005,2.413,0.272,3.502,0.808     c1.937,0.99,3.443,2.656,4.233,4.683c0.407,0.944,0.606,1.964,0.583,2.991C172.533,249.309,171.926,251.103,170.796,252.558z      M284.279,356.7c-23.958,37.175-55.15,63.333-87.825,73.658c-2.406,0.757-5.026,0.36-7.1-1.075     c-2.207-1.483-3.608-3.898-3.8-6.55L174.304,270.9c0.41-0.179,0.774-0.449,1.174-0.65c0.674-0.338,1.326-0.69,1.965-1.085     c0.311-0.194,0.658-0.325,0.961-0.531l103.75,76.475C285.8,347.813,286.728,352.878,284.279,356.7z M288.579,328.642     l-100.076-73.767c0.206-0.683,0.319-1.393,0.467-2.093c0.097-0.458,0.234-0.902,0.305-1.368c0.204-1.306,0.309-2.626,0.312-3.948     c0-0.482-0.017-0.956-0.042-1.429l124.601-51.89c2.53-1.093,5.44-0.845,7.749,0.66c2.471,1.579,4,4.278,4.083,7.208     c0.883,23.699-1.378,47.411-6.725,70.517c-4.159,18.257-10.179,36.039-17.967,53.067c-1.023,2.226-3.005,3.864-5.383,4.45     C293.375,330.707,290.685,330.19,288.579,328.642z" fill="#333333"/>
			<path d="M512.221,276.458c-3.556-47.233-20.111-92.56-47.833-130.967c-28.203-39.626-63.894-73.344-105.058-99.25     C316.703,17.339,266.672,1.289,215.187,0h-1.283c-1.996,0-3.934,0.079-5.964,0.169c-0.844,0.032-1.686,0.085-2.53,0.131     l-2.573,0.15c-0.603,0.048-1.183,0.134-1.784,0.188c-1.972,0.169-3.942,0.369-5.91,0.619c-0.875,0.103-1.787,0.162-2.647,0.277     c-5.05,0.717-9.15,1.467-12.508,2.275c-1.053,0.195-2.094,0.451-3.117,0.767c-1.766,0.417-3.533,0.917-5.733,1.542     c-1.86,0.49-3.693,1.077-5.492,1.758c-0.7,0.183-1.388,0.411-2.058,0.683c-1.242,0.433-2.392,0.867-3.55,1.3l-1.483,0.55     c-0.237,0.087-0.395,0.277-0.619,0.383c-67.669,26.171-126.585,98.14-147.889,191.7C-4.725,262.493-0.038,325.637,23.429,382.8     c14.798,36.617,41.515,67.171,75.831,86.721c18.696,12.032,39.223,20.947,60.778,26.396c19.045,5.182,38.353,9.344,57.842,12.467     c15.674,2.47,31.516,3.718,47.383,3.733c80.325,0,152.533-32.892,199-92.342c29.905-37.231,46.837-83.208,48.225-130.942     C512.571,284.667,512.487,280.492,512.221,276.458z M138.762,466.275c-10.625-2.412-20.887-6.212-30.521-11.302     c-1.905-1.294-3.77-2.609-5.563-3.973c-1.115-0.813-2.416-1.336-3.784-1.521c-26.79-18.044-47.618-43.639-59.841-73.538     c-21.999-53.816-26.332-113.229-12.375-169.667C46.835,117.779,102.132,49.86,165.013,26.221l1.033-0.388     c1.017-0.383,2.033-0.767,3.125-1.142l0.622-0.21c4.255-1.439,8.529-2.76,12.839-3.783l0.286-0.066     c4.275-1.005,8.578-1.711,12.889-2.294c1.736-0.224,3.493-0.389,5.256-0.555c3.724-0.35,7.451-0.646,11.186-0.67     c0.363-0.007,0.712-0.028,1.078-0.03c9.113,0.014,18.198,1.034,27.087,3.042c43.025,9.75,78.433,41.833,99.709,90.333     c21.999,53.816,26.332,113.229,12.375,169.667C324.471,403.133,228.637,486.6,138.762,466.275z M495.42,288.567     c-1.324,44.018-16.987,86.4-44.608,120.7c-51.575,66-137.65,96.725-230.267,82.258c-11.326-1.81-22.669-4.135-33.973-6.702     c81.564-11.747,157.673-91.645,182.556-200.915c14.771-60.001,10.084-123.145-13.383-180.308     c-10.264-24.201-25.391-46.035-44.443-64.148c13.424,6.096,26.387,13.161,38.785,21.14c39.27,24.682,73.327,56.814,100.25,94.583     c25.794,35.919,41.298,78.196,44.842,122.275C495.42,281.125,495.503,284.8,495.42,288.567z" fill="#333333"/>
		</g>
	</g>
</g>
<g>
</g>
<g>
</g>
<g>
</g>
<g>
</g>
<g>
</g>
<g>
</g>
<g>
</g>
<g>
</g>
<g>
</g>
<g>
</g>
<g>
</g>
<g>
</g>
<g>
</g>
<g>
</g>
<g>
</g>
</svg>
