<?xml version="1.0" encoding="iso-8859-1"?>
<!-- Generator: Adobe Illustrator 19.0.0, SVG Export Plug-In . SVG Version: 6.00 Build 0)  -->
<svg xmlns="http://www.w3.org/2000/svg" xmlns:xlink="http://www.w3.org/1999/xlink" version="1.1" id="Capa_1" x="0px" y="0px" viewBox="0 0 208.215 208.215" style="enable-background:new 0 0 208.215 208.215;" xml:space="preserve" width="512px" height="512px">
<g>
	<g>
		<path d="M161.533,40.96H46.681c-15.389,0-27.907,12.518-27.907,27.907v102.927c0,20.082,16.338,36.42,36.42,36.42h97.826    c20.082,0,36.42-16.338,36.422-36.42V68.867C189.442,53.478,176.922,40.96,161.533,40.96z M182.613,171.796    c0,16.319-13.274,29.594-29.594,29.594H55.194c-16.319,0-29.594-13.274-29.594-29.594V68.869c0-11.624,9.457-21.081,21.081-21.081    v0h114.85c11.626,0,21.082,9.457,21.082,21.081V171.796z" fill="#333333"/>
	</g>
</g>
<g>
	<g>
		<path d="M141.653,27.308H66.56c-1.884,0-3.413,1.529-3.413,3.413v13.653c0,1.884,1.529,3.413,3.413,3.413h75.093    c1.884,0,3.413-1.529,3.413-3.413V30.722C145.067,28.838,143.538,27.308,141.653,27.308z M138.24,40.962H69.973v-6.827h68.267    V40.962z" fill="#333333"/>
	</g>
</g>
<g>
	<g>
		<path d="M160.261,0H47.951c-4.797,0-8.699,3.901-8.699,8.699v16.737c0,4.797,3.901,8.699,8.699,8.699h112.311    c4.797,0,8.699-3.901,8.699-8.699V8.699C168.96,3.901,165.059,0,160.261,0z M162.135,25.438c0,1.033-0.841,1.872-1.872,1.872    H47.952c-1.033,0-1.872-0.841-1.872-1.872V8.701c0-1.033,0.841-1.872,1.872-1.872h112.311c1.033,0,1.872,0.841,1.872,1.872V25.438    z" fill="#333333"/>
	</g>
</g>
<g>
	<g>
		<path d="M186.027,71.682H22.187c-1.884,0-3.413,1.529-3.413,3.413v95.573c0,1.884,1.529,3.413,3.413,3.413h163.84    c1.884,0,3.413-1.529,3.413-3.413V75.095C189.44,73.211,187.911,71.682,186.027,71.682z M182.613,167.255H25.6V78.508h157.013    V167.255z" fill="#333333"/>
	</g>
</g>
<g>
	<g>
		<path d="M51.902,116.507c-0.667-1.143-1.527-2.036-2.584-2.676c-1.056-0.643-2.244-1.07-3.567-1.283    c-1.321-0.215-2.633-0.321-3.941-0.321c-1.261,0-2.524,0.058-3.794,0.171c-1.27,0.113-2.434,0.27-3.49,0.469v26.146h5.169v-9.093    c0.123,0.027,0.333,0.049,0.623,0.077c0.287,0.022,0.584,0.043,0.887,0.056c0.3,0.014,0.589,0.017,0.867,0.017s0.478,0,0.604,0    c1.307,0,2.57-0.164,3.794-0.49c1.217-0.328,2.306-0.853,3.263-1.584c0.954-0.729,1.72-1.666,2.301-2.809    c0.58-1.147,0.867-2.546,0.867-4.207C52.902,119.144,52.569,117.654,51.902,116.507z M46.997,123.283    c-0.312,0.602-0.736,1.077-1.263,1.413c-0.531,0.34-1.126,0.573-1.794,0.7s-1.341,0.186-2.017,0.186c-0.102,0-0.259,0-0.473,0    c-0.213,0-0.433-0.003-0.66-0.017s-0.44-0.032-0.64-0.056c-0.205-0.027-0.353-0.049-0.454-0.077v-8.564    c0.276-0.05,0.64-0.094,1.094-0.133c0.454-0.036,0.93-0.056,1.434-0.056c0.654,0,1.297,0.063,1.923,0.191    c0.63,0.126,1.19,0.352,1.679,0.679c0.49,0.328,0.886,0.761,1.19,1.3c0.3,0.539,0.451,1.227,0.451,2.057    C47.466,121.887,47.309,122.68,46.997,123.283z" fill="#333333"/>
	</g>
</g>
<g>
	<g>
		<path d="M69.919,128.944l-1.85-1.171c1.686-0.526,3.029-1.469,4.036-2.83c1.007-1.357,1.51-3.12,1.51-5.284    c0-1.458-0.283-2.671-0.85-3.64c-0.563-0.968-1.319-1.729-2.263-2.284s-2.014-0.944-3.207-1.171    c-1.193-0.224-2.406-0.336-3.64-0.336c-0.531,0-1.108,0.012-1.737,0.036c-0.628,0.026-1.277,0.063-1.944,0.113    s-1.333,0.12-2,0.207c-0.667,0.09-1.287,0.183-1.867,0.283h0.002v26.15h5.169v-10.831l2.717,0.493l5.997,10.337h5.963    L69.919,128.944z M63.464,124.677h-2.186v-7.66c0.276-0.077,0.672-0.126,1.186-0.15c0.517-0.026,1.039-0.036,1.567-0.036    c1.359,0,2.389,0.319,3.094,0.959c0.703,0.643,1.056,1.531,1.056,2.661c0,1.509-0.427,2.589-1.283,3.246    C66.045,124.351,64.898,124.677,63.464,124.677z" fill="#333333"/>
	</g>
</g>
<g>
	<g>
		<path d="M98.48,120.187c-0.454-1.686-1.147-3.133-2.077-4.34c-0.93-1.207-2.101-2.137-3.507-2.79    c-1.41-0.654-3.057-0.983-4.943-0.983c-3.596,0-6.362,1.19-8.3,3.567c-1.937,2.377-2.906,5.767-2.906,10.167    c0,2.063,0.224,3.937,0.677,5.623c0.454,1.686,1.137,3.13,2.057,4.34c0.916,1.207,2.08,2.137,3.49,2.79    c1.406,0.654,3.067,0.98,4.98,0.98c3.57,0,6.33-1.186,8.281-3.564s2.927-5.767,2.927-10.17    C99.159,123.747,98.934,121.873,98.48,120.187z M92.215,132.784c-1.007,1.437-2.427,2.154-4.263,2.154    c-1.005,0-1.872-0.227-2.603-0.679c-0.73-0.452-1.328-1.082-1.794-1.886c-0.466-0.806-0.809-1.766-1.036-2.886    c-0.227-1.12-0.34-2.347-0.34-3.68c0-3.142,0.503-5.449,1.51-6.927c1.007-1.469,2.427-2.207,4.263-2.207    c1.056,0,1.949,0.234,2.676,0.7c0.73,0.464,1.323,1.114,1.773,1.944c0.454,0.829,0.787,1.795,1,2.903    c0.213,1.108,0.323,2.304,0.323,3.584C93.725,129.024,93.222,131.35,92.215,132.784z" fill="#333333"/>
	</g>
</g>
<g>
	<g>
		<polygon points="99.538,112.604 99.538,117.207 107.271,117.207 107.271,139.013 112.44,139.013 112.44,117.207 120.137,117.207     120.137,112.604   " fill="#333333"/>
	</g>
</g>
<g>
	<g>
		<polygon points="127.983,134.41 127.983,127.961 137.527,127.961 137.527,123.358 127.983,123.358 127.983,117.207     138.47,117.207 138.47,112.604 122.813,112.604 122.813,112.604 122.813,139.013 138.66,139.013 138.66,134.41   " fill="#333333"/>
	</g>
</g>
<g>
	<g>
		<rect x="143.037" y="112.604" width="5.166" height="26.411" fill="#333333"/>
	</g>
</g>
<g>
	<g>
		<polygon points="168.614,112.602 168.614,126.486 169.218,130.522 169.028,130.522 167.032,126.486 157.032,112.413     153.259,112.413 153.259,139.013 158.165,139.013 158.165,125.244 157.56,121.093 157.749,121.093 159.826,125.244     169.743,139.203 173.517,139.203 173.517,112.602   " fill="#333333"/>
	</g>
</g>
<g>
	<g>
		<path d="M66.56,0.002c-1.884,0-3.413,1.529-3.413,3.413v13.653c0,1.884,1.529,3.413,3.413,3.413s3.413-1.529,3.413-3.413V3.415    C69.973,1.531,68.444,0.002,66.56,0.002z" fill="#333333"/>
	</g>
</g>
<g>
	<g>
		<path d="M90.453,0.002c-1.884,0-3.413,1.529-3.413,3.413v13.653c0,1.884,1.529,3.413,3.413,3.413s3.413-1.529,3.413-3.413V3.415    C93.867,1.531,92.338,0.002,90.453,0.002z" fill="#333333"/>
	</g>
</g>
<g>
	<g>
		<path d="M141.653,0.002c-1.884,0-3.413,1.529-3.413,3.413v13.653c0,1.884,1.529,3.413,3.413,3.413s3.413-1.529,3.413-3.413V3.415    C145.067,1.531,143.538,0.002,141.653,0.002z" fill="#333333"/>
	</g>
</g>
<g>
	<g>
		<path d="M117.76,0.002c-1.884,0-3.413,1.529-3.413,3.413v13.653c0,1.884,1.529,3.413,3.413,3.413c1.884,0,3.413-1.529,3.413-3.413    V3.415C121.173,1.531,119.644,0.002,117.76,0.002z" fill="#333333"/>
	</g>
</g>
<g>
</g>
<g>
</g>
<g>
</g>
<g>
</g>
<g>
</g>
<g>
</g>
<g>
</g>
<g>
</g>
<g>
</g>
<g>
</g>
<g>
</g>
<g>
</g>
<g>
</g>
<g>
</g>
<g>
</g>
</svg>
